<svg width="169" height="45" viewBox="0 0 169 45" fill="none" xmlns="http://www.w3.org/2000/svg">
<path d="M14.3758 30L16.931 14.6086H27.3021L26.8512 17.2916H19.7342L19.133 20.9591H25.7164L25.2655 23.642H18.6821L18.0808 27.317H25.2279L24.777 30H14.3758ZM42.5601 19.9971H39.3135C39.3235 19.5662 39.2684 19.1854 39.1482 18.8548C39.0279 18.5191 38.8476 18.2335 38.6071 17.998C38.3716 17.7625 38.0835 17.5847 37.7428 17.4644C37.4021 17.3392 37.0188 17.2765 36.593 17.2765C35.7713 17.2765 35.0173 17.482 34.3309 17.8928C33.6445 18.3036 33.0658 18.8999 32.5948 19.6814C32.1239 20.458 31.7982 21.3974 31.6178 22.4997C31.4425 23.5619 31.4525 24.4512 31.6479 25.1676C31.8433 25.8841 32.189 26.4252 32.685 26.791C33.186 27.1517 33.8098 27.3321 34.5563 27.3321C35.0173 27.3321 35.4557 27.2744 35.8715 27.1592C36.2873 27.039 36.6656 26.8686 37.0063 26.6482C37.352 26.4227 37.6526 26.1496 37.9082 25.829C38.1687 25.5083 38.3716 25.1451 38.5169 24.7393H41.7861C41.5806 25.4457 41.26 26.1271 40.8241 26.7834C40.3932 27.4398 39.8596 28.026 39.2233 28.542C38.587 29.0531 37.8631 29.4589 37.0514 29.7595C36.2398 30.0601 35.3504 30.2104 34.3835 30.2104C32.9856 30.2104 31.7857 29.8898 30.7836 29.2485C29.7866 28.6072 29.0676 27.6828 28.6267 26.4753C28.1858 25.2678 28.1031 23.8124 28.3787 22.1089C28.6543 20.4605 29.1929 19.0627 29.9945 17.9153C30.8012 16.763 31.7807 15.8887 32.933 15.2925C34.0904 14.6963 35.3279 14.3982 36.6456 14.3982C37.5625 14.3982 38.3916 14.5234 39.1332 14.7739C39.8747 15.0244 40.506 15.3902 41.027 15.8712C41.5531 16.3471 41.9489 16.9308 42.2144 17.6222C42.48 18.3137 42.5952 19.1053 42.5601 19.9971ZM58.6392 22.5147C58.3586 24.1581 57.815 25.5534 57.0084 26.7008C56.2067 27.8481 55.2272 28.7199 54.0699 29.3161C52.9175 29.9123 51.675 30.2104 50.3423 30.2104C48.9444 30.2104 47.7395 29.8923 46.7274 29.256C45.7203 28.6197 44.9914 27.7003 44.5404 26.4979C44.0895 25.2904 44.0043 23.8349 44.2849 22.1314C44.5555 20.4831 45.0941 19.0852 45.9007 17.9379C46.7074 16.7855 47.6919 15.9087 48.8542 15.3075C50.0166 14.7013 51.2667 14.3982 52.6044 14.3982C53.9922 14.3982 55.1897 14.7188 56.1967 15.3601C57.2088 16.0014 57.9378 16.9283 58.3837 18.1408C58.8346 19.3483 58.9198 20.8062 58.6392 22.5147ZM55.4001 22.1314C55.5755 21.0743 55.5679 20.1875 55.3775 19.471C55.1922 18.7495 54.8515 18.2034 54.3555 17.8327C53.8594 17.4619 53.2332 17.2765 52.4766 17.2765C51.655 17.2765 50.9009 17.482 50.2145 17.8928C49.5331 18.3036 48.9569 18.8999 48.486 19.6814C48.02 20.458 47.6969 21.4025 47.5165 22.5147C47.3361 23.5769 47.3412 24.4637 47.5315 25.1752C47.7269 25.8866 48.0751 26.4252 48.5762 26.791C49.0822 27.1517 49.711 27.3321 50.4625 27.3321C51.2792 27.3321 52.0257 27.1316 52.7021 26.7308C53.3835 26.325 53.9571 25.7363 54.4231 24.9647C54.8891 24.1881 55.2147 23.2437 55.4001 22.1314ZM62.3574 14.6086H66.3706L68.9033 24.9497H69.0836L75.0283 14.6086H79.0415L76.4862 30H73.3298L74.9982 19.9821H74.8629L69.2415 29.9248H67.0846L64.7698 19.9445H64.6421L62.9586 30H59.8022L62.3574 14.6086ZM81.7226 14.6086H85.7357L88.2684 24.9497H88.4488L94.3934 14.6086H98.4066L95.8514 30H92.6949L94.3633 19.9821H94.2281L88.6066 29.9248H86.4497L84.135 19.9445H84.0072L82.3238 30H79.1673L81.7226 14.6086ZM98.5325 30L101.088 14.6086H111.459L111.008 17.2916H103.891L103.29 20.9591H109.873L109.422 23.642H102.839L102.238 27.317H109.385L108.934 30H98.5325ZM111.491 30L114.046 14.6086H120.118C121.281 14.6086 122.238 14.814 122.989 15.2249C123.746 15.6357 124.277 16.2194 124.582 16.9759C124.893 17.7275 124.966 18.6143 124.8 19.6364C124.63 20.6584 124.262 21.5352 123.696 22.2667C123.135 22.9982 122.403 23.5619 121.501 23.9577C120.604 24.3485 119.565 24.5439 118.382 24.5439H114.317L114.767 21.9285H118.3C118.921 21.9285 119.452 21.8434 119.893 21.673C120.334 21.5027 120.682 21.2471 120.938 20.9064C121.198 20.5658 121.368 20.1424 121.449 19.6364C121.534 19.1203 121.504 18.6894 121.358 18.3437C121.213 17.993 120.95 17.7275 120.569 17.5471C120.189 17.3617 119.688 17.269 119.066 17.269H116.872L114.745 30H111.491ZM120.96 22.9957L123.628 30H120.036L117.45 22.9957H120.96ZM140.729 19.9971H137.483C137.493 19.5662 137.437 19.1854 137.317 18.8548C137.197 18.5191 137.017 18.2335 136.776 17.998C136.541 17.7625 136.253 17.5847 135.912 17.4644C135.571 17.3392 135.188 17.2765 134.762 17.2765C133.94 17.2765 133.186 17.482 132.5 17.8928C131.813 18.3036 131.235 18.8999 130.764 19.6814C130.293 20.458 129.967 21.3974 129.787 22.4997C129.612 23.5619 129.622 24.4512 129.817 25.1676C130.012 25.8841 130.358 26.4252 130.854 26.791C131.355 27.1517 131.979 27.3321 132.725 27.3321C133.186 27.3321 133.625 27.2744 134.041 27.1592C134.456 27.039 134.835 26.8686 135.175 26.6482C135.521 26.4227 135.822 26.1496 136.077 25.829C136.338 25.5083 136.541 25.1451 136.686 24.7393H139.955C139.75 25.4457 139.429 26.1271 138.993 26.7834C138.562 27.4398 138.029 28.026 137.392 28.542C136.756 29.0531 136.032 29.4589 135.22 29.7595C134.409 30.0601 133.519 30.2104 132.553 30.2104C131.155 30.2104 129.955 29.8898 128.953 29.2485C127.956 28.6072 127.237 27.6828 126.796 26.4753C126.355 25.2678 126.272 23.8124 126.548 22.1089C126.823 20.4605 127.362 19.0627 128.164 17.9153C128.97 16.763 129.95 15.8887 131.102 15.2925C132.259 14.6963 133.497 14.3982 134.815 14.3982C135.731 14.3982 136.561 14.5234 137.302 14.7739C138.044 15.0244 138.675 15.3902 139.196 15.8712C139.722 16.3471 140.118 16.9308 140.383 17.6222C140.649 18.3137 140.764 19.1053 140.729 19.9971ZM141.417 30L143.972 14.6086H154.343L153.892 17.2916H146.775L146.174 20.9591H152.757L152.307 23.642H145.723L145.122 27.317H152.269L151.818 30H141.417Z" fill="#001C30"/>
</svg>
